#!OML:ASF E:\Mandelcareful walks\Project 1\Capture day 1\Session 1\Subject1.ASF
:FULLY-SPECIFIED
:DEGREES
896
root 10.8718 15.9472 -0.968393 201.404 -71.739 -190.403
lowerback 28.1869 -3.4669 0.447387
upperback 4.20506 -4.67299 1.10614
thorax -10.7894 -2.34666 2.73238
lowerneck -32.1973 -6.98391 -9.53088
upperneck 12.0956 -7.06429 7.67713
head 9.52289 -2.90437 3.03305
rclavicle 7.78242e-014 -4.37326e-015
rhumerus -19.2149 2.97224 -76.7619
rradius 39.749
rwrist -16.6448
rhand -11.1507 -25.2565
rfingers 7.12502
rthumb 14.8754 -54.7025
lclavicle 7.78242e-014 -4.37326e-015
lhumerus -17.007 -23.7444 83.1942
lradius 47.3153
lwrist 26.6303
lhand -26.638 -12.7993
lfingers 7.12502
lthumb -0.0704636 17.1804
rfemur -37.8961 -15.5012 11.3569
rtibia 49.1972
rfoot -17.2146 -12.0161
rtoes -2.2122
lfemur -27.4204 18.1637 -5.64287
ltibia 36.5753
lfoot -9.73638 19.0403
ltoes -17.1434
897
root 10.8446 16.0061 -1.0155 200.972 -71.8659 -189.953
lowerback 27.6482 -3.4997 0.581946
upperback 3.98787 -4.64841 1.17517
thorax -10.7678 -2.32965 2.69583
lowerneck -31.8878 -7.25123 -9.89887
upperneck 12.4469 -7.32637 7.79747
head 9.64633 -3.0275 3.0907
rclavicle 2.37548e-014 -6.55989e-014
rhumerus -19.7621 2.51544 -76.6962
rradius 39.0287
rwrist -16.4458
rhand -10.9224 -25.5273
rfingers 7.12502
rthumb 15.0952 -54.9569
lclavicle 2.37548e-014 -6.55989e-014
lhumerus -17.539 -22.9202 83.2846
lradius 46.3756
lwrist 26.1503
lhand -26.2961 -13.6769
lfingers 7.12502
lthumb 0.259788 16.3027
rfemur -36.9958 -15.1247 11.5946
rtibia 47.9037
rfoot -16.8498 -12.3284
rtoes -1.24223
lfemur -26.0165 17.3502 -5.29025
ltibia 34.4207
lfoot -9.54819 19.6053
ltoes -15.6005
898
root 10.7976 16.0735 -1.06227 200.057 -71.7903 -189.34
lowerback 27.2057 -3.42748 0.6177
upperback 3.94584 -4.53949 1.21734
thorax -10.5907 -2.28173 2.6537
lowerneck -31.573 -7.44316 -10.1266
upperneck 12.6313 -7.53426 7.8592
head 9.69644 -3.12922 3.11448
rclavicle -4.4329e-014 1.88845e-014
rhumerus -20.2629 2.32192 -76.6136
rradius 38.4969
rwrist -16.6306
rhand -10.8087 -25.5247
rfingers 7.12502
rthumb 15.2047 -54.946
lclavicle -4.4329e-014 1.88845e-014
lhumerus -18.0314 -22.1959 83.2682
lradius 45.552
lwrist 25.5432
lhand -25.9576 -14.1403
lfingers 7.12502
lthumb 0.586669 15.8386
rfemur -35.654 -14.726 11.7556
rtibia 46.5456
rfoot -16.4558 -12.5744
rtoes -1.12921
lfemur -24.0659 16.6815 -4.84649
ltibia 32.2393
lfoot -9.80227 19.8633
ltoes -13.6106
899
root 10.7606 16.1427 -1.10777 199.237 -72.0085 -188.639
lowerback 26.7324 -3.47784 0.715655
upperback 3.79098 -4.55326 1.32397
thorax -10.5207 -2.28456 2.69538
lowerneck -31.2467 -7.52244 -10.2307
upperneck 12.7939 -7.63049 7.85518
head 9.71879 -3.1818 3.11593
rclavicle 2.8625e-014 -3.43897e-014
rhumerus -20.7403 2.3293 -76.5328
rradius 37.9535
rwrist -16.8347
rhand -10.5828 -25.7065
rfingers 7.12502
rthumb 15.4224 -55.1112
lclavicle 2.8625e-014 -3.43897e-014
lhumerus -18.6989 -21.6111 83.283
lradius 44.7439
lwrist 24.8975
lhand -26.0168 -14.2867
lfingers 7.12502
lthumb 0.529534 15.6923
rfemur -34.5054 -14.5504 12.0863
rtibia 45.2454
rfoot -16.1301 -13.0096
rtoes -2.05396
lfemur -22.5478 15.7104 -4.3091
ltibia 30.1548
lfoot -10.0848 20.2794
ltoes -11.1362
900
root 10.7248 16.2025 -1.15104 198.541 -72.3368 -187.996
lowerback 26.1702 -3.58429 0.827677
upperback 3.66199 -4.64014 1.42919
thorax -10.3723 -2.3243 2.74362
lowerneck -30.9517 -7.51883 -10.4098
upperneck 12.8694 -7.61235 8.00312
head 9.7145 -3.16829 3.20473
rclavicle -4.64162e-014 4.85035e-014
rhumerus -21.1566 2.39459 -76.5034
rradius 37.5301
rwrist -16.9063
rhand -10.4086 -26.0956
rfingers 7.12502
rthumb 15.5901 -55.4873
lclavicle -4.64162e-014 4.85035e-014
lhumerus -19.3393 -21.0121 83.2732
lradius 44.0137
lwrist 24.5385
lhand -26.3342 -14.6109
lfingers 7.12502
lthumb 0.222918 15.3688
rfemur -33.4216 -14.3877 12.4016
rtibia 43.9449
rfoot -15.8289 -13.6
rtoes -3.37818
lfemur -21.1443 14.5652 -3.79949
ltibia 28.077
lfoot -10.227 20.9412
ltoes -8.23766
901
root 10.6941 16.2503 -1.18105 197.797 -72.6001 -187.13
lowerback 25.3588 -3.66791 1.1346
upperback 3.59937 -4.66391 1.44916
thorax -10.0417 -2.34855 2.54087
lowerneck -31.2809 -7.62123 -10.2672
upperneck 13.2653 -7.79005 7.99526
head 9.91971 -3.23186 3.14483
rclavicle 3.18055e-015 -5.1684e-015
rhumerus -21.3835 2.15795 -76.6097
rradius 37.0201
rwrist -16.8915
rhand -10.4284 -26.0003
rfingers 7.12502
rthumb 15.5711 -55.3935
lclavicle 3.18055e-015 -5.1684e-015
lhumerus -19.7784 -20.5125 83.0844
lradius 43.3918
lwrist 24.2361
lhand -26.391 -14.6726
lfingers 7.12502
lthumb 0.168079 15.3071
rfemur -32.6379 -14.131 12.764
rtibia 42.6827
rfoot -15.4226 -14.1339
rtoes -4.01748
lfemur -20.0373 13.4027 -3.35555
ltibia 26.1424
lfoot -10.2995 21.7958
ltoes -6.45498
